<mxfile host="app.diagrams.net" agent="Mozilla/5.0 (Windows NT 10.0; Win64; x64) AppleWebKit/537.36 (KHTML, like Gecko) Chrome/130.0.0.0 Safari/537.36 Edg/130.0.0.0" version="24.8.3">
  <diagram name="Page-1" id="E_jW4FqS_QM_KcEr0x-j">
    <mxGraphModel>
      <root>
        <mxCell id="0" />
        <mxCell id="1" parent="0" />
        <mxCell id="2" value="Application" style="whiteSpace=wrap;strokeWidth=2;verticalAlign=top;" vertex="1" parent="1">
          <mxGeometry x="8" y="8" width="501" height="372" as="geometry" />
        </mxCell>
        <mxCell id="3" value="Load Balancer" style="whiteSpace=wrap;strokeWidth=2;" vertex="1" parent="2">
          <mxGeometry x="186" y="46" width="162" height="49" as="geometry" />
        </mxCell>
        <mxCell id="4" value="Web Servers" style="whiteSpace=wrap;strokeWidth=2;" vertex="1" parent="2">
          <mxGeometry x="192" y="170" width="149" height="49" as="geometry" />
        </mxCell>
        <mxCell id="5" value="Database" style="whiteSpace=wrap;strokeWidth=2;" vertex="1" parent="2">
          <mxGeometry x="43" y="294" width="126" height="49" as="geometry" />
        </mxCell>
        <mxCell id="6" value="Caching" style="whiteSpace=wrap;strokeWidth=2;" vertex="1" parent="2">
          <mxGeometry x="219" y="294" width="116" height="49" as="geometry" />
        </mxCell>
        <mxCell id="7" value="CDN" style="whiteSpace=wrap;strokeWidth=2;" vertex="1" parent="2">
          <mxGeometry x="385" y="294" width="90" height="49" as="geometry" />
        </mxCell>
        <mxCell id="8" value="" style="curved=1;dashed=1;dashPattern=2 3;startArrow=none;endArrow=block;exitX=0.5;exitY=0.99;entryX=0.5;entryY=-0.01;" edge="1" parent="2" source="3" target="4">
          <mxGeometry relative="1" as="geometry">
            <Array as="points" />
          </mxGeometry>
        </mxCell>
        <mxCell id="9" value="" style="curved=1;dashed=1;dashPattern=2 3;startArrow=none;endArrow=block;exitX=0;exitY=0.96;entryX=0.38;entryY=-0.01;" edge="1" parent="2" source="4" target="5">
          <mxGeometry relative="1" as="geometry">
            <Array as="points">
              <mxPoint x="67" y="256" />
            </Array>
          </mxGeometry>
        </mxCell>
        <mxCell id="10" value="" style="curved=1;dashed=1;dashPattern=2 3;startArrow=none;endArrow=block;exitX=0.53;exitY=0.99;entryX=0.5;entryY=-0.01;" edge="1" parent="2" source="4" target="6">
          <mxGeometry relative="1" as="geometry">
            <Array as="points">
              <mxPoint x="277" y="256" />
            </Array>
          </mxGeometry>
        </mxCell>
        <mxCell id="11" value="" style="curved=1;dashed=1;dashPattern=2 3;startArrow=none;endArrow=block;exitX=0.93;exitY=0.99;entryX=0.49;entryY=-0.01;" edge="1" parent="2" source="4" target="7">
          <mxGeometry relative="1" as="geometry">
            <Array as="points">
              <mxPoint x="430" y="256" />
            </Array>
          </mxGeometry>
        </mxCell>
        <mxCell id="12" value="" style="curved=1;dashed=1;dashPattern=2 3;startArrow=none;endArrow=block;exitX=0.74;exitY=-0.01;entryX=0.28;entryY=0.99;" edge="1" parent="2" source="5" target="4">
          <mxGeometry relative="1" as="geometry">
            <Array as="points">
              <mxPoint x="181" y="256" />
            </Array>
          </mxGeometry>
        </mxCell>
        <mxCell id="13" value="User" style="whiteSpace=wrap;strokeWidth=2;verticalAlign=top;" vertex="1" parent="1">
          <mxGeometry x="171" y="430" width="175" height="541" as="geometry" />
        </mxCell>
        <mxCell id="14" value="Home Page" style="ellipse;aspect=fixed;strokeWidth=2;whiteSpace=wrap;" vertex="1" parent="13">
          <mxGeometry x="48" y="46" width="94" height="94" as="geometry" />
        </mxCell>
        <mxCell id="15" value="Login" style="rounded=1;arcSize=40;strokeWidth=2" vertex="1" parent="13">
          <mxGeometry x="61" y="215" width="68" height="49" as="geometry" />
        </mxCell>
        <mxCell id="16" value="Dashboard" style="rounded=1;arcSize=40;strokeWidth=2" vertex="1" parent="13">
          <mxGeometry x="43" y="339" width="105" height="49" as="geometry" />
        </mxCell>
        <mxCell id="17" value="Profile" style="rounded=1;arcSize=40;strokeWidth=2" vertex="1" parent="13">
          <mxGeometry x="57" y="463" width="77" height="49" as="geometry" />
        </mxCell>
        <mxCell id="18" value="" style="curved=1;dashed=1;dashPattern=2 3;startArrow=none;endArrow=block;exitX=0.5;exitY=1;entryX=0.5;entryY=0;" edge="1" parent="13" source="14" target="15">
          <mxGeometry relative="1" as="geometry">
            <Array as="points" />
          </mxGeometry>
        </mxCell>
        <mxCell id="19" value="" style="curved=1;dashed=1;dashPattern=2 3;startArrow=none;endArrow=block;exitX=0.5;exitY=1;entryX=0.5;entryY=0;" edge="1" parent="13" source="15" target="16">
          <mxGeometry relative="1" as="geometry">
            <Array as="points" />
          </mxGeometry>
        </mxCell>
        <mxCell id="20" value="" style="curved=1;dashed=1;dashPattern=2 3;startArrow=none;endArrow=block;exitX=0.37;exitY=1;entryX=0.32;entryY=0;" edge="1" parent="13" source="16" target="17">
          <mxGeometry relative="1" as="geometry">
            <Array as="points">
              <mxPoint x="62" y="425" />
            </Array>
          </mxGeometry>
        </mxCell>
        <mxCell id="21" value="" style="curved=1;dashed=1;dashPattern=2 3;startArrow=none;endArrow=block;exitX=0.67;exitY=0;entryX=0.62;entryY=1;" edge="1" parent="13" source="17" target="16">
          <mxGeometry relative="1" as="geometry">
            <Array as="points">
              <mxPoint x="129" y="425" />
            </Array>
          </mxGeometry>
        </mxCell>
      </root>
    </mxGraphModel>
  </diagram>
</mxfile>
